<?xml version="1.0" encoding="iso-8859-1"?>
<!-- Generator: Adobe Illustrator 19.0.0, SVG Export Plug-In . SVG Version: 6.00 Build 0)  -->
<svg version="1.1" id="Capa_1" xmlns="http://www.w3.org/2000/svg" xmlns:xlink="http://www.w3.org/1999/xlink" x="0px" y="0px"
	 viewBox="0 0 490.667 490.667" style="enable-background:new 0 0 490.667 490.667;" xml:space="preserve">
<g>
	<path style="fill:#455A64;" d="M74.667,266.667c-5.891-0.003-10.664-4.781-10.661-10.672c0.001-2.101,0.623-4.155,1.786-5.904
		l128-192c3.27-4.901,9.893-6.224,14.795-2.955c4.901,3.27,6.224,9.893,2.955,14.795l-128,192
		C81.56,264.893,78.23,266.67,74.667,266.667z"/>
	<path style="fill:#455A64;" d="M418.133,275.904c-3.622-0.001-6.997-1.841-8.96-4.885L279.04,69.781
		c-3.199-4.948-1.78-11.553,3.168-14.752c4.948-3.199,11.553-1.78,14.752,3.168l130.133,201.237
		c3.193,4.951,1.768,11.552-3.183,14.745c-1.716,1.107-3.714,1.698-5.756,1.703L418.133,275.904z"/>
</g>
<path style="fill:#FFC107;" d="M10.667,245.333H480c5.891,0,10.667,4.776,10.667,10.667v213.333c0,5.891-4.776,10.667-10.667,10.667
	H10.667C4.776,480,0,475.224,0,469.333V256C0,250.109,4.776,245.333,10.667,245.333z"/>
<g>
	<path style="fill:#FAFAFA;" d="M160,437.333c-5.891,0-10.667-4.776-10.667-10.667v-128c0-5.891,4.776-10.667,10.667-10.667h32
		c23.564,0,42.667,19.103,42.667,42.667S215.564,373.333,192,373.333h-21.333v53.333C170.667,432.558,165.891,437.333,160,437.333z
		 M170.667,352H192c11.782,0,21.333-9.551,21.333-21.333c0-11.782-9.551-21.333-21.333-21.333h-21.333V352z"/>
	<path style="fill:#FAFAFA;" d="M85.333,437.333c-23.564,0-42.667-19.103-42.667-42.667v-64c0-23.564,19.103-42.667,42.667-42.667
		S128,307.103,128,330.667v64C128,418.231,108.897,437.333,85.333,437.333z M85.333,309.333c-11.782,0-21.333,9.551-21.333,21.333
		v64C64,406.449,73.551,416,85.333,416s21.333-9.551,21.333-21.333v-64C106.667,318.885,97.115,309.333,85.333,309.333z"/>
	<path style="fill:#FAFAFA;" d="M330.667,437.333h-64c-5.891,0-10.667-4.776-10.667-10.667v-128c0-5.891,4.776-10.667,10.667-10.667
		h64c5.891,0,10.667,4.776,10.667,10.667c0,5.891-4.776,10.667-10.667,10.667h-53.333V416h53.333
		c5.891,0,10.667,4.776,10.667,10.667C341.333,432.558,336.558,437.333,330.667,437.333z"/>
	<path style="fill:#FAFAFA;" d="M309.333,373.333h-42.667c-5.891,0-10.667-4.776-10.667-10.667c0-5.891,4.776-10.667,10.667-10.667
		h42.667c5.891,0,10.667,4.776,10.667,10.667C320,368.558,315.224,373.333,309.333,373.333z"/>
	<path style="fill:#FAFAFA;" d="M437.333,437.333c-4.037,0-7.728-2.279-9.536-5.888L384,343.851v82.816
		c0,5.891-4.776,10.667-10.667,10.667s-10.667-4.776-10.667-10.667v-128c0-5.891,4.776-10.666,10.667-10.666
		c4.036,0,7.727,2.279,9.535,5.887l43.797,87.595v-82.816c0-5.891,4.776-10.667,10.667-10.667S448,292.776,448,298.667v128
		c0.004,4.949-3.397,9.251-8.213,10.389C438.982,437.241,438.159,437.334,437.333,437.333z"/>
</g>
<circle style="fill:#607D8B;" cx="245.333" cy="64" r="53.333"/>
<g>
</g>
<g>
</g>
<g>
</g>
<g>
</g>
<g>
</g>
<g>
</g>
<g>
</g>
<g>
</g>
<g>
</g>
<g>
</g>
<g>
</g>
<g>
</g>
<g>
</g>
<g>
</g>
<g>
</g>
</svg>
