<?xml version="1.0" ?><!DOCTYPE svg  PUBLIC '-//W3C//DTD SVG 1.1//EN'  'http://www.w3.org/Graphics/SVG/1.1/DTD/svg11.dtd'><svg enable-background="new 0 0 128 128" id="Слой_1" version="1.1" viewBox="0 0 128 128" xml:space="preserve" xmlns="http://www.w3.org/2000/svg" xmlns:xlink="http://www.w3.org/1999/xlink"><g/><g><path d="M117.5,68.2c3-2,5-5.4,5-9.2c0-6.1-4.9-11-11-11h-24c-1.7,0-3-1.3-3-3V18c0-8.8-7.2-16-16-16   c-2.8,0-5,2.2-5,5v18.7C59.7,37,52.7,46.9,43.3,54.3l-3.1,2.5v-2.7H5.5V126h34.7v-6c6.4,3.9,13.7,6,21.2,6h39.1c5.5,0,10-4.5,10-10   c0-2.3-0.8-4.5-2.1-6.1c5.7-0.9,10.1-5.9,10.1-11.9c0-3.5-1.5-6.6-3.8-8.8c4.6-1.7,7.8-6.1,7.8-11.2   C122.5,74,120.5,70.4,117.5,68.2z M36.2,122H9.5V58.1h26.7V122z M110.5,86c0,0-3.3,0-4,0v4c4.4,0,8,3.6,8,8s-3.6,8-8,8h-6v4   c3.3,0,6,2.7,6,6s-2.7,6-6,6H61.4c-7.6,0-15-2.4-21.2-6.8V61.9l5.6-4.4c10.1-8,17.5-18.6,21.6-30.8l0.1-0.3V7c0-0.6,0.4-1,1-1   c6.6,0,12,5.4,12,12v27c0,3.9,3.1,7,7,7h24c3.9,0,7,3.1,7,7s-3.1,7-7,7h-1v4c4.4,0,8,3.6,8,8S114.9,86,110.5,86z" fill="#3EBBC4"/><circle cx="22.9" cy="115.1" fill="#3EBBC4" r="3"/></g></svg>