<svg id="line" enable-background="new 0 0 36 36" height="512" viewBox="0 0 36 36" width="512" xmlns="http://www.w3.org/2000/svg"><path d="m8.377 31.833c6.917 0 11.667 3.583 15 3.583s10.333-1.916 10.333-17.249-9.417-17.584-13.083-17.584c-17.167 0-24.5 31.25-12.25 31.25z" fill="#efefef"/><g fill="#a4afc1"><path d="m27.467 3.967h1v2h-1z" transform="matrix(.707 -.707 .707 .707 4.676 21.226)"/><path d="m31.533 8.033h1v2h-1z" transform="matrix(.707 -.707 .707 .707 2.992 25.292)"/><path d="m30.856 4.467h2v1h-2z" transform="matrix(.707 -.707 .707 .707 5.818 23.981)"/></g><path d="m24.25 29.25h-12.5c-1.105 0-2-.895-2-2v-13.5h16.5v13.5c0 1.105-.895 2-2 2z" fill="#f3f3f1"/><path d="m28.25 13.75h-20.5v-2c0-1.105.895-2 2-2h16.5c1.105 0 2 .895 2 2z" fill="#2fdf84"/><path d="m12 9.75h-2.25c-1.105 0-2 .895-2 2v2h2.25v-2c0-1.105.895-2 2-2z" fill="#00b871"/><path d="m12 27.25v-13.5h-2.25v13.5c0 1.105.895 2 2 2h2.25c-1.105 0-2-.895-2-2z" fill="#d5dbe1"/><path d="m24.25 30h-12.5c-1.517 0-2.75-1.233-2.75-2.75v-13.5c0-.414.336-.75.75-.75h16.5c.414 0 .75.336.75.75v13.5c0 1.517-1.233 2.75-2.75 2.75zm-13.75-15.5v12.75c0 .689.561 1.25 1.25 1.25h12.5c.689 0 1.25-.561 1.25-1.25v-12.75z"/><path d="m28.25 14.5h-20.5c-.414 0-.75-.336-.75-.75v-2c0-1.517 1.233-2.75 2.75-2.75h16.5c1.517 0 2.75 1.233 2.75 2.75v2c0 .414-.336.75-.75.75zm-19.75-1.5h19v-1.25c0-.689-.561-1.25-1.25-1.25h-16.5c-.689 0-1.25.561-1.25 1.25z"/><path d="m21.25 10.5h-6.5c-.414 0-.75-.336-.75-.75v-2c0-.965.785-1.75 1.75-1.75h4.5c.965 0 1.75.785 1.75 1.75v2c0 .414-.336.75-.75.75zm-5.75-1.5h5v-1.25c0-.138-.112-.25-.25-.25h-4.5c-.138 0-.25.112-.25.25z"/><path d="m13 17h1.5v9h-1.5z"/><path d="m17.25 17h1.5v9h-1.5z"/><path d="m21.5 17h1.5v9h-1.5z"/><path d="m2 28.5h32v1.5h-32z"/></svg>