<?xml version="1.0" encoding="iso-8859-1"?>
<!-- Generator: Adobe Illustrator 19.0.0, SVG Export Plug-In . SVG Version: 6.00 Build 0)  -->
<svg version="1.1" id="Capa_1" xmlns="http://www.w3.org/2000/svg" xmlns:xlink="http://www.w3.org/1999/xlink" x="0px" y="0px"
	 viewBox="0 0 512 512" style="enable-background:new 0 0 512 512;" xml:space="preserve">
<g>
	<g>
		<g>
			<path d="M469.333,149.333H356.417l-80.135-80.135c0.441-1.707,1.052-3.355,1.052-5.198c0-11.76-9.573-21.333-21.333-21.333
				S234.667,52.24,234.667,64c0,1.842,0.611,3.491,1.052,5.198l-80.135,80.135H42.667C19.135,149.333,0,168.469,0,192v234.667
				c0,23.531,19.135,42.667,42.667,42.667h426.667c23.531,0,42.667-19.135,42.667-42.667V192
				C512,168.469,492.865,149.333,469.333,149.333z M250.802,84.281c1.707,0.441,3.355,1.052,5.198,1.052s3.491-0.611,5.198-1.052
				l65.052,65.052h-140.5L250.802,84.281z M490.667,426.667c0,11.76-9.573,21.333-21.333,21.333H42.667
				c-11.76,0-21.333-9.573-21.333-21.333V192c0-11.76,9.573-21.333,21.333-21.333h426.667c11.76,0,21.333,9.573,21.333,21.333
				V426.667z"/>
			<path d="M384,277.333c5.896,0,10.667-4.771,10.667-10.667c0-5.896-4.771-10.667-10.667-10.667h-42.667
				c-5.896,0-10.667,4.771-10.667,10.667V352c0,5.896,4.771,10.667,10.667,10.667H384c5.896,0,10.667-4.771,10.667-10.667
				c0-5.896-4.771-10.667-10.667-10.667h-32V320h21.333c5.896,0,10.667-4.771,10.667-10.667c0-5.896-4.771-10.667-10.667-10.667H352
				v-21.333H384z"/>
			<path d="M213.333,256c-17.646,0-32,14.354-32,32v42.667c0,17.646,14.354,32,32,32c17.646,0,32-14.354,32-32V288
				C245.333,270.354,230.979,256,213.333,256z M224,330.667c0,5.885-4.781,10.667-10.667,10.667
				c-5.885,0-10.667-4.781-10.667-10.667V288c0-5.885,4.781-10.667,10.667-10.667c5.885,0,10.667,4.781,10.667,10.667V330.667z"/>
			<path d="M74.667,277.333c5.885,0,10.667,4.781,10.667,10.667c0,5.896,4.771,10.667,10.667,10.667s10.667-4.771,10.667-10.667
				c0-17.646-14.354-32-32-32c-17.646,0-32,14.354-32,32v42.667c0,17.646,14.354,32,32,32c17.646,0,32-14.354,32-32
				c0-5.896-4.771-10.667-10.667-10.667s-10.667,4.771-10.667,10.667c0,5.885-4.781,10.667-10.667,10.667
				c-5.885,0-10.667-4.781-10.667-10.667V288C64,282.115,68.781,277.333,74.667,277.333z"/>
			<path d="M288,277.333h21.333c5.896,0,10.667-4.771,10.667-10.667c0-5.896-4.771-10.667-10.667-10.667H288
				c-17.646,0-32,14.354-32,32s14.354,32,32,32c5.885,0,10.667,4.781,10.667,10.667c0,5.885-4.781,10.667-10.667,10.667h-21.333
				c-5.896,0-10.667,4.771-10.667,10.667c0,5.896,4.771,10.667,10.667,10.667H288c17.646,0,32-14.354,32-32
				c0-17.646-14.354-32-32-32c-5.885,0-10.667-4.781-10.667-10.667S282.115,277.333,288,277.333z"/>
			<path d="M437.333,256H416c-5.896,0-10.667,4.771-10.667,10.667V352c0,5.896,4.771,10.667,10.667,10.667h21.333
				c17.646,0,32-14.354,32-32V288C469.333,270.354,454.979,256,437.333,256z M448,330.667c0,5.885-4.781,10.667-10.667,10.667
				h-10.667v-64h10.667c5.885,0,10.667,4.781,10.667,10.667V330.667z"/>
			<path d="M170.667,341.333h-32v-74.667c0-5.896-4.771-10.667-10.667-10.667s-10.667,4.771-10.667,10.667V352
				c0,5.896,4.771,10.667,10.667,10.667h42.667c5.896,0,10.667-4.771,10.667-10.667
				C181.333,346.104,176.563,341.333,170.667,341.333z"/>
		</g>
	</g>
</g>
<g>
</g>
<g>
</g>
<g>
</g>
<g>
</g>
<g>
</g>
<g>
</g>
<g>
</g>
<g>
</g>
<g>
</g>
<g>
</g>
<g>
</g>
<g>
</g>
<g>
</g>
<g>
</g>
<g>
</g>
</svg>
